M48
; DRILL file {KiCad 9.0.4} date 2026-08-20T09:26:41+0800
; FORMAT={-:-/ absolute / metric / decimal}
; #@! TF.CreationDate,2026-08-20T09:26:41+08:00
; #@! TF.GenerationSoftware,Kicad,Pcbnew,9.0.4
; #@! TF.FileFunction,Plated,1,2,PTH
FMAT,2
METRIC
; #@! TA.AperFunction,Plated,PTH,ViaDrill
T1C0.300
; #@! TA.AperFunction,Plated,PTH,ComponentDrill
T2C0.800
; #@! TA.AperFunction,Plated,PTH,ComponentDrill
T3C1.100
; #@! TA.AperFunction,Plated,PTH,ComponentDrill
T4C1.150
%
G90
G05
T1
X86.5Y-51.5
T2
X46.934Y-46.994
X57.094Y-46.994
X67.74Y-46.0
X68.82Y-55.0
X73.82Y-52.0
X77.9Y-46.0
X78.98Y-55.0
X81.24Y-46.0
X81.24Y-55.0
X83.98Y-52.0
X91.4Y-46.0
X91.4Y-55.0
T3
X43.22Y-43.0
X43.22Y-58.24
X45.76Y-43.0
X45.76Y-58.24
X48.3Y-43.0
X48.3Y-58.24
X50.84Y-43.0
X50.84Y-58.24
X53.38Y-43.0
X53.38Y-58.24
X55.92Y-43.0
X55.92Y-58.24
X58.46Y-43.0
X58.46Y-58.24
X61.0Y-43.0
X61.0Y-58.24
X63.54Y-43.0
X63.54Y-58.24
X66.08Y-43.0
X66.08Y-58.24
X68.62Y-43.0
X68.62Y-58.24
X71.16Y-43.0
X71.16Y-58.24
X73.7Y-43.0
X73.7Y-58.24
X76.24Y-43.0
X76.24Y-58.24
X78.78Y-43.0
X78.78Y-58.24
X81.32Y-43.0
X81.32Y-58.24
X83.86Y-43.0
X83.86Y-58.24
X86.4Y-43.0
X86.4Y-58.24
X88.94Y-43.0
X88.94Y-58.24
X91.48Y-43.0
X91.48Y-58.24
T4
X44.014Y-49.694
X44.014Y-54.294
X48.7Y-63.0
X51.014Y-50.694
X51.014Y-55.294
X53.3Y-63.0
X54.8Y-71.0
X56.714Y-54.994
X59.4Y-71.0
X61.314Y-54.994
X62.3Y-64.5
X64.0Y-71.0
X66.02Y-49.5
X66.9Y-64.5
X70.62Y-49.5
X71.5Y-64.5
X78.3Y-71.0
X80.5Y-63.0
X82.9Y-71.0
X85.1Y-63.0
X87.5Y-71.0
X89.7Y-63.0
M30
