%TF.GenerationSoftware,KiCad,Pcbnew,9.0.4*%
%TF.CreationDate,2026-08-20T09:25:24+08:00*%
%TF.ProjectId,guitar_pedal_schematic,67756974-6172-45f7-9065-64616c5f7363,rev?*%
%TF.SameCoordinates,Original*%
%TF.FileFunction,Copper,L2,Bot*%
%TF.FilePolarity,Positive*%
%FSLAX46Y46*%
G04 Gerber Fmt 4.6, Leading zero omitted, Abs format (unit mm)*
G04 Created by KiCad (PCBNEW 9.0.4) date 2026-08-20 09:25:24*
%MOMM*%
%LPD*%
G01*
G04 APERTURE LIST*
G04 Aperture macros list*
%AMRoundRect*
0 Rectangle with rounded corners*
0 $1 Rounding radius*
0 $2 $3 $4 $5 $6 $7 $8 $9 X,Y pos of 4 corners*
0 Add a 4 corners polygon primitive as box body*
4,1,4,$2,$3,$4,$5,$6,$7,$8,$9,$2,$3,0*
0 Add four circle primitives for the rounded corners*
1,1,$1+$1,$2,$3*
1,1,$1+$1,$4,$5*
1,1,$1+$1,$6,$7*
1,1,$1+$1,$8,$9*
0 Add four rect primitives between the rounded corners*
20,1,$1+$1,$2,$3,$4,$5,0*
20,1,$1+$1,$4,$5,$6,$7,0*
20,1,$1+$1,$6,$7,$8,$9,0*
20,1,$1+$1,$8,$9,$2,$3,0*%
G04 Aperture macros list end*
%TA.AperFunction,ComponentPad*%
%ADD10RoundRect,0.250000X-0.825000X-0.825000X0.825000X-0.825000X0.825000X0.825000X-0.825000X0.825000X0*%
%TD*%
%TA.AperFunction,ComponentPad*%
%ADD11C,2.150000*%
%TD*%
%TA.AperFunction,ComponentPad*%
%ADD12RoundRect,0.250000X0.825000X0.825000X-0.825000X0.825000X-0.825000X-0.825000X0.825000X-0.825000X0*%
%TD*%
%TA.AperFunction,SMDPad,CuDef*%
%ADD13RoundRect,0.250000X-1.500000X-0.550000X1.500000X-0.550000X1.500000X0.550000X-1.500000X0.550000X0*%
%TD*%
%TA.AperFunction,SMDPad,CuDef*%
%ADD14RoundRect,0.250000X-0.475000X0.337500X-0.475000X-0.337500X0.475000X-0.337500X0.475000X0.337500X0*%
%TD*%
%TA.AperFunction,ComponentPad*%
%ADD15RoundRect,0.250000X0.825000X-0.825000X0.825000X0.825000X-0.825000X0.825000X-0.825000X-0.825000X0*%
%TD*%
%TA.AperFunction,ComponentPad*%
%ADD16C,1.600000*%
%TD*%
%TA.AperFunction,ComponentPad*%
%ADD17R,1.700000X1.700000*%
%TD*%
%TA.AperFunction,ComponentPad*%
%ADD18C,1.700000*%
%TD*%
%TA.AperFunction,ViaPad*%
%ADD19C,0.600000*%
%TD*%
%TA.AperFunction,Conductor*%
%ADD20C,0.250000*%
%TD*%
G04 APERTURE END LIST*
D10*
%TO.P,RV2,1,1*%
%TO.N,+3V3*%
X62300000Y-64500000D03*
D11*
%TO.P,RV2,2,2*%
%TO.N,/POT2*%
X66900000Y-64500000D03*
%TO.P,RV2,3,3*%
%TO.N,GND*%
X71500000Y-64500000D03*
%TD*%
D10*
%TO.P,RV1,1,1*%
%TO.N,+3V3*%
X54800000Y-71000000D03*
D11*
%TO.P,RV1,2,2*%
%TO.N,/POT1*%
X59400000Y-71000000D03*
%TO.P,RV1,3,3*%
%TO.N,GND*%
X64000000Y-71000000D03*
%TD*%
D12*
%TO.P,J3,1*%
%TO.N,GND*%
X53300000Y-63000000D03*
D11*
%TO.P,J3,2*%
%TO.N,Net-(A1-VIN)*%
X48700000Y-63000000D03*
%TD*%
%TO.P,RV3,3,3*%
%TO.N,GND*%
X87500000Y-71000000D03*
%TO.P,RV3,2,2*%
%TO.N,/POT3*%
X82900000Y-71000000D03*
D10*
%TO.P,RV3,1,1*%
%TO.N,+3V3*%
X78300000Y-71000000D03*
%TD*%
D13*
%TO.P,C4,1*%
%TO.N,Net-(A1-VIN)*%
X43300000Y-69500000D03*
%TO.P,C4,2*%
%TO.N,GND*%
X48700000Y-69500000D03*
%TD*%
D14*
%TO.P,C5,2*%
%TO.N,Net-(A1-VIN)*%
X43500000Y-63575000D03*
%TO.P,C5,1*%
%TO.N,GND*%
X43500000Y-61500000D03*
%TD*%
D15*
%TO.P,SW1,1,A*%
%TO.N,GND*%
X44013750Y-54293750D03*
D11*
%TO.P,SW1,2,B*%
%TO.N,/FS*%
X44013750Y-49693750D03*
%TD*%
D16*
%TO.P,R3,1*%
%TO.N,Net-(U1--)*%
X91400000Y-46000000D03*
%TO.P,R3,2*%
%TO.N,Net-(C2-Pad1)*%
X81240000Y-46000000D03*
%TD*%
%TO.P,R5,1*%
%TO.N,/Vref*%
X81240000Y-55000000D03*
%TO.P,R5,2*%
%TO.N,+3V3*%
X91400000Y-55000000D03*
%TD*%
D10*
%TO.P,J2,S*%
%TO.N,GND*%
X56713750Y-54993750D03*
D11*
%TO.P,J2,T*%
%TO.N,Net-(C6-Pad1)*%
X61313750Y-54993750D03*
%TD*%
D16*
%TO.P,R1,1*%
%TO.N,Net-(D1-A)*%
X57093750Y-46993750D03*
%TO.P,R1,2*%
%TO.N,/LED*%
X46933750Y-46993750D03*
%TD*%
D11*
%TO.P,J1,T*%
%TO.N,Net-(C1-Pad1)*%
X70620000Y-49500000D03*
D10*
%TO.P,J1,S*%
%TO.N,GND*%
X66020000Y-49500000D03*
%TD*%
D16*
%TO.P,R2,1*%
%TO.N,/Vref*%
X73820000Y-52000000D03*
%TO.P,R2,2*%
%TO.N,Net-(U1-+)*%
X83980000Y-52000000D03*
%TD*%
D15*
%TO.P,D1,1,K*%
%TO.N,GND*%
X51013750Y-55293750D03*
D11*
%TO.P,D1,2,A*%
%TO.N,Net-(D1-A)*%
X51013750Y-50693750D03*
%TD*%
D16*
%TO.P,R4,1*%
%TO.N,GND*%
X68820000Y-55000000D03*
%TO.P,R4,2*%
%TO.N,/Vref*%
X78980000Y-55000000D03*
%TD*%
%TO.P,R6,1*%
%TO.N,Net-(C6-Pad2)*%
X67740000Y-46000000D03*
%TO.P,R6,2*%
%TO.N,Net-(A1-AUDIO_OUT_1)*%
X77900000Y-46000000D03*
%TD*%
D10*
%TO.P,RV4,1,1*%
%TO.N,+3V3*%
X80500000Y-63000000D03*
D11*
%TO.P,RV4,2,2*%
%TO.N,/POT4*%
X85100000Y-63000000D03*
%TO.P,RV4,3,3*%
%TO.N,GND*%
X89700000Y-63000000D03*
%TD*%
D17*
%TO.P,A1,1,USB_ID*%
%TO.N,/FS*%
X43220000Y-43000000D03*
D18*
%TO.P,A1,2,SD_DATA_3*%
%TO.N,/LED*%
X45760000Y-43000000D03*
%TO.P,A1,3,SD_DATA_2*%
%TO.N,unconnected-(A1-SD_DATA_2-Pad3)*%
X48300000Y-43000000D03*
%TO.P,A1,4,SD_DATA_1*%
%TO.N,unconnected-(A1-SD_DATA_1-Pad4)*%
X50840000Y-43000000D03*
%TO.P,A1,5,SD_DATA_0*%
%TO.N,unconnected-(A1-SD_DATA_0-Pad5)*%
X53380000Y-43000000D03*
%TO.P,A1,6,SD_CMD*%
%TO.N,unconnected-(A1-SD_CMD-Pad6)*%
X55920000Y-43000000D03*
%TO.P,A1,7,SD_CLK*%
%TO.N,unconnected-(A1-SD_CLK-Pad7)*%
X58460000Y-43000000D03*
%TO.P,A1,8,SPI1_CS*%
%TO.N,unconnected-(A1-SPI1_CS-Pad8)*%
X61000000Y-43000000D03*
%TO.P,A1,9,SPI1_SCK*%
%TO.N,unconnected-(A1-SPI1_SCK-Pad9)*%
X63540000Y-43000000D03*
%TO.P,A1,10,SPI1_POCI*%
%TO.N,unconnected-(A1-SPI1_POCI-Pad10)*%
X66080000Y-43000000D03*
%TO.P,A1,11,SPI1_PICO*%
%TO.N,unconnected-(A1-SPI1_PICO-Pad11)*%
X68620000Y-43000000D03*
%TO.P,A1,12,I2C1_SCL*%
%TO.N,unconnected-(A1-I2C1_SCL-Pad12)*%
X71160000Y-43000000D03*
%TO.P,A1,13,I2C1_SDA*%
%TO.N,unconnected-(A1-I2C1_SDA-Pad13)*%
X73700000Y-43000000D03*
%TO.P,A1,14,USART1_TX*%
%TO.N,unconnected-(A1-USART1_TX-Pad14)*%
X76240000Y-43000000D03*
%TO.P,A1,15,USART1_RX*%
%TO.N,unconnected-(A1-USART1_RX-Pad15)*%
X78780000Y-43000000D03*
%TO.P,A1,16,AUDIO_IN_1*%
%TO.N,/AudioIN*%
X81320000Y-43000000D03*
%TO.P,A1,17,AUDIO_IN_2*%
%TO.N,unconnected-(A1-AUDIO_IN_2-Pad17)*%
X83860000Y-43000000D03*
%TO.P,A1,18,AUDIO_OUT_1*%
%TO.N,Net-(A1-AUDIO_OUT_1)*%
X86400000Y-43000000D03*
%TO.P,A1,19,AUDIO_OUT_2*%
%TO.N,unconnected-(A1-AUDIO_OUT_2-Pad19)*%
X88940000Y-43000000D03*
%TO.P,A1,20,AGND*%
%TO.N,GND*%
X91480000Y-43000000D03*
%TO.P,A1,21,3V3_A*%
%TO.N,+3V3*%
X91480000Y-58240000D03*
%TO.P,A1,22,ADC_0*%
%TO.N,unconnected-(A1-ADC_0-Pad22)*%
X88940000Y-58240000D03*
%TO.P,A1,23,ADC_1*%
%TO.N,unconnected-(A1-ADC_1-Pad23)*%
X86400000Y-58240000D03*
%TO.P,A1,24,ADC_2*%
%TO.N,unconnected-(A1-ADC_2-Pad24)*%
X83860000Y-58240000D03*
%TO.P,A1,25,ADC_3*%
%TO.N,unconnected-(A1-ADC_3-Pad25)*%
X81320000Y-58240000D03*
%TO.P,A1,26,ADC_4*%
%TO.N,unconnected-(A1-ADC_4-Pad26)*%
X78780000Y-58240000D03*
%TO.P,A1,27,ADC_5*%
%TO.N,/POT4*%
X76240000Y-58240000D03*
%TO.P,A1,28,ADC_6*%
%TO.N,/POT3*%
X73700000Y-58240000D03*
%TO.P,A1,29,DAC_OUT2*%
%TO.N,/POT2*%
X71160000Y-58240000D03*
%TO.P,A1,30,DAC_OUT1*%
%TO.N,/POT1*%
X68620000Y-58240000D03*
%TO.P,A1,31,SAI2_MCLK*%
%TO.N,unconnected-(A1-SAI2_MCLK-Pad31)*%
X66080000Y-58240000D03*
%TO.P,A1,32,SAI2_SD_B*%
%TO.N,unconnected-(A1-SAI2_SD_B-Pad32)*%
X63540000Y-58240000D03*
%TO.P,A1,33,SAI2_SD_A*%
%TO.N,unconnected-(A1-SAI2_SD_A-Pad33)*%
X61000000Y-58240000D03*
%TO.P,A1,34,SAI2_FS*%
%TO.N,unconnected-(A1-SAI2_FS-Pad34)*%
X58460000Y-58240000D03*
%TO.P,A1,35,SAI2_SCK*%
%TO.N,unconnected-(A1-SAI2_SCK-Pad35)*%
X55920000Y-58240000D03*
%TO.P,A1,36,USB_D_-*%
%TO.N,unconnected-(A1-USB_D_--Pad36)*%
X53380000Y-58240000D03*
%TO.P,A1,37,USB_D_+*%
%TO.N,unconnected-(A1-USB_D_+-Pad37)*%
X50840000Y-58240000D03*
%TO.P,A1,38,3V3_D*%
%TO.N,unconnected-(A1-3V3_D-Pad38)*%
X48300000Y-58240000D03*
%TO.P,A1,39,VIN*%
%TO.N,Net-(A1-VIN)*%
X45760000Y-58240000D03*
%TO.P,A1,40,DGND*%
%TO.N,GND*%
X43220000Y-58240000D03*
%TD*%
D19*
%TO.N,GND*%
X86500000Y-51500000D03*
%TD*%
D20*
%TO.N,/POT4*%
X76240000Y-58240000D02*
X76240000Y-60240000D01*
X76240000Y-60240000D02*
X77000000Y-61000000D01*
X77000000Y-61000000D02*
X83100000Y-61000000D01*
X83100000Y-61000000D02*
X85100000Y-63000000D01*
%TO.N,/POT1*%
X64000000Y-66500000D02*
X64500000Y-66000000D01*
X63900000Y-66500000D02*
X64000000Y-66500000D01*
X64500000Y-66000000D02*
X64500000Y-62360000D01*
X68620000Y-58240000D02*
X64500000Y-62360000D01*
X63900000Y-66500000D02*
X59400000Y-71000000D01*
%TO.N,GND*%
X65000000Y-74000000D02*
X86500000Y-74000000D01*
X64000000Y-71000000D02*
X64000000Y-73000000D01*
X64000000Y-73000000D02*
X65000000Y-74000000D01*
X86500000Y-74000000D02*
X87500000Y-73000000D01*
X87500000Y-73000000D02*
X87500000Y-71000000D01*
X53300000Y-63000000D02*
X52204000Y-61904000D01*
X52204000Y-61904000D02*
X52204000Y-56484000D01*
X52204000Y-56484000D02*
X51013750Y-55293750D01*
X53300000Y-63000000D02*
X53300000Y-64900000D01*
X53300000Y-64900000D02*
X48700000Y-69500000D01*
%TO.N,Net-(A1-VIN)*%
X48700000Y-63000000D02*
X48700000Y-61180000D01*
X48700000Y-61180000D02*
X45760000Y-58240000D01*
X43500000Y-63575000D02*
X48125000Y-63575000D01*
X48125000Y-63575000D02*
X48700000Y-63000000D01*
X43300000Y-69500000D02*
X43300000Y-63775000D01*
X43300000Y-63775000D02*
X43500000Y-63575000D01*
X43500000Y-69300000D02*
X43300000Y-69500000D01*
%TO.N,GND*%
X87764000Y-52764000D02*
X86500000Y-51500000D01*
X87764000Y-61064000D02*
X87764000Y-52764000D01*
X89700000Y-63000000D02*
X87764000Y-61064000D01*
X43500000Y-61500000D02*
X43500000Y-58520000D01*
X43500000Y-58520000D02*
X43220000Y-58240000D01*
X87500000Y-71000000D02*
X89700000Y-68800000D01*
X89700000Y-68800000D02*
X89700000Y-63000000D01*
X71500000Y-64500000D02*
X70500000Y-64500000D01*
X70500000Y-64500000D02*
X64000000Y-71000000D01*
X68820000Y-55000000D02*
X69951370Y-55000000D01*
X69951370Y-55000000D02*
X72336000Y-57384630D01*
X72336000Y-63664000D02*
X71500000Y-64500000D01*
X72336000Y-57384630D02*
X72336000Y-63664000D01*
%TO.N,/POT3*%
X73700000Y-58240000D02*
X73700000Y-61800000D01*
X73700000Y-61800000D02*
X82900000Y-71000000D01*
%TO.N,/POT2*%
X71160000Y-58240000D02*
X66900000Y-62500000D01*
X66900000Y-62500000D02*
X66900000Y-64500000D01*
%TD*%
M02*
