%TF.GenerationSoftware,KiCad,Pcbnew,9.0.4*%
%TF.CreationDate,2026-08-20T09:25:24+08:00*%
%TF.ProjectId,guitar_pedal_schematic,67756974-6172-45f7-9065-64616c5f7363,rev?*%
%TF.SameCoordinates,Original*%
%TF.FileFunction,Soldermask,Top*%
%TF.FilePolarity,Negative*%
%FSLAX46Y46*%
G04 Gerber Fmt 4.6, Leading zero omitted, Abs format (unit mm)*
G04 Created by KiCad (PCBNEW 9.0.4) date 2026-08-20 09:25:24*
%MOMM*%
%LPD*%
G01*
G04 APERTURE LIST*
G04 Aperture macros list*
%AMRoundRect*
0 Rectangle with rounded corners*
0 $1 Rounding radius*
0 $2 $3 $4 $5 $6 $7 $8 $9 X,Y pos of 4 corners*
0 Add a 4 corners polygon primitive as box body*
4,1,4,$2,$3,$4,$5,$6,$7,$8,$9,$2,$3,0*
0 Add four circle primitives for the rounded corners*
1,1,$1+$1,$2,$3*
1,1,$1+$1,$4,$5*
1,1,$1+$1,$6,$7*
1,1,$1+$1,$8,$9*
0 Add four rect primitives between the rounded corners*
20,1,$1+$1,$2,$3,$4,$5,0*
20,1,$1+$1,$4,$5,$6,$7,0*
20,1,$1+$1,$6,$7,$8,$9,0*
20,1,$1+$1,$8,$9,$2,$3,0*%
G04 Aperture macros list end*
%ADD10RoundRect,0.250000X-0.825000X-0.825000X0.825000X-0.825000X0.825000X0.825000X-0.825000X0.825000X0*%
%ADD11C,2.150000*%
%ADD12RoundRect,0.250000X0.825000X0.825000X-0.825000X0.825000X-0.825000X-0.825000X0.825000X-0.825000X0*%
%ADD13RoundRect,0.250000X0.825000X-0.825000X0.825000X0.825000X-0.825000X0.825000X-0.825000X-0.825000X0*%
%ADD14C,1.600000*%
%ADD15RoundRect,0.250000X-0.337500X-0.475000X0.337500X-0.475000X0.337500X0.475000X-0.337500X0.475000X0*%
%ADD16RoundRect,0.250000X0.475000X-0.337500X0.475000X0.337500X-0.475000X0.337500X-0.475000X-0.337500X0*%
%ADD17RoundRect,0.162500X0.162500X-0.617500X0.162500X0.617500X-0.162500X0.617500X-0.162500X-0.617500X0*%
%ADD18RoundRect,0.250000X0.337500X0.475000X-0.337500X0.475000X-0.337500X-0.475000X0.337500X-0.475000X0*%
%ADD19RoundRect,0.250000X-0.475000X0.337500X-0.475000X-0.337500X0.475000X-0.337500X0.475000X0.337500X0*%
%ADD20R,1.700000X1.700000*%
%ADD21C,1.700000*%
G04 APERTURE END LIST*
D10*
%TO.C,RV2*%
X62300000Y-64500000D03*
D11*
X66900000Y-64500000D03*
X71500000Y-64500000D03*
%TD*%
D10*
%TO.C,RV1*%
X54800000Y-71000000D03*
D11*
X59400000Y-71000000D03*
X64000000Y-71000000D03*
%TD*%
D12*
%TO.C,J3*%
X53300000Y-63000000D03*
D11*
X48700000Y-63000000D03*
%TD*%
%TO.C,RV3*%
X87500000Y-71000000D03*
X82900000Y-71000000D03*
D10*
X78300000Y-71000000D03*
%TD*%
D13*
%TO.C,SW1*%
X44013750Y-54293750D03*
D11*
X44013750Y-49693750D03*
%TD*%
D14*
%TO.C,R3*%
X91400000Y-46000000D03*
X81240000Y-46000000D03*
%TD*%
D15*
%TO.C,C1*%
X81282500Y-49000000D03*
X83357500Y-49000000D03*
%TD*%
D14*
%TO.C,R5*%
X81240000Y-55000000D03*
X91400000Y-55000000D03*
%TD*%
D15*
%TO.C,C3*%
X66395000Y-53000000D03*
X64320000Y-53000000D03*
%TD*%
D10*
%TO.C,J2*%
X56713750Y-54993750D03*
D11*
X61313750Y-54993750D03*
%TD*%
D14*
%TO.C,R1*%
X57093750Y-46993750D03*
X46933750Y-46993750D03*
%TD*%
D16*
%TO.C,C6*%
X60820000Y-47993750D03*
X60820000Y-45918750D03*
%TD*%
D11*
%TO.C,J1*%
X70620000Y-49500000D03*
D10*
X66020000Y-49500000D03*
%TD*%
D14*
%TO.C,R2*%
X73820000Y-52000000D03*
X83980000Y-52000000D03*
%TD*%
D13*
%TO.C,D1*%
X51013750Y-55293750D03*
D11*
X51013750Y-50693750D03*
%TD*%
D17*
%TO.C,U1*%
X89370000Y-49150000D03*
X91270000Y-49150000D03*
X91270000Y-51850000D03*
X90320000Y-51850000D03*
X89370000Y-51850000D03*
%TD*%
D18*
%TO.C,C2*%
X78857500Y-49000000D03*
X76782500Y-49000000D03*
%TD*%
D19*
%TO.C,C7*%
X86320000Y-49500000D03*
X86320000Y-51575000D03*
%TD*%
D14*
%TO.C,R4*%
X68820000Y-55000000D03*
X78980000Y-55000000D03*
%TD*%
%TO.C,R6*%
X67740000Y-46000000D03*
X77900000Y-46000000D03*
%TD*%
D10*
%TO.C,RV4*%
X80500000Y-63000000D03*
D11*
X85100000Y-63000000D03*
X89700000Y-63000000D03*
%TD*%
D20*
%TO.C,A1*%
X43220000Y-43000000D03*
D21*
X45760000Y-43000000D03*
X48300000Y-43000000D03*
X50840000Y-43000000D03*
X53380000Y-43000000D03*
X55920000Y-43000000D03*
X58460000Y-43000000D03*
X61000000Y-43000000D03*
X63540000Y-43000000D03*
X66080000Y-43000000D03*
X68620000Y-43000000D03*
X71160000Y-43000000D03*
X73700000Y-43000000D03*
X76240000Y-43000000D03*
X78780000Y-43000000D03*
X81320000Y-43000000D03*
X83860000Y-43000000D03*
X86400000Y-43000000D03*
X88940000Y-43000000D03*
X91480000Y-43000000D03*
X91480000Y-58240000D03*
X88940000Y-58240000D03*
X86400000Y-58240000D03*
X83860000Y-58240000D03*
X81320000Y-58240000D03*
X78780000Y-58240000D03*
X76240000Y-58240000D03*
X73700000Y-58240000D03*
X71160000Y-58240000D03*
X68620000Y-58240000D03*
X66080000Y-58240000D03*
X63540000Y-58240000D03*
X61000000Y-58240000D03*
X58460000Y-58240000D03*
X55920000Y-58240000D03*
X53380000Y-58240000D03*
X50840000Y-58240000D03*
X48300000Y-58240000D03*
X45760000Y-58240000D03*
X43220000Y-58240000D03*
%TD*%
M02*
